<svg xmlns="http://www.w3.org/2000/svg" xmlns:xlink="http://www.w3.org/1999/xlink" width="1500" zoomAndPan="magnify" viewBox="0 0 1125 1124.99995" height="1500" preserveAspectRatio="xMidYMid meet" version="1.0"><defs><g/><clipPath id="id1"><path d="M 263 248.132812 L 816 248.132812 L 816 557 L 263 557 Z M 263 248.132812 " clip-rule="nonzero"/></clipPath><clipPath id="id2"><path d="M 874 538.097656 L 907.238281 538.097656 L 907.238281 573.898438 L 874 573.898438 Z M 874 538.097656 " clip-rule="nonzero"/></clipPath><clipPath id="id3"><path d="M 835.109375 529 L 907 529 L 907 602 L 835.109375 602 Z M 835.109375 529 " clip-rule="nonzero"/></clipPath><clipPath id="id4"><path d="M 445.121094 806.585938 L 727.71875 806.585938 L 727.71875 828.613281 L 445.121094 828.613281 Z M 445.121094 806.585938 " clip-rule="nonzero"/></clipPath></defs><g clip-path="url(#id1)"><path fill="#2b7929" d="M 813.261719 470.992188 C 742.390625 401.632812 678.332031 329.316406 617.398438 251.109375 C 615.191406 248.269531 611.332031 248.136719 608.882812 250.742188 C 505.589844 360.65625 390.347656 461.070312 265.5625 545.945312 C 259.59375 550.007812 266.128906 559.320312 272.035156 555.117188 C 394.765625 467.820312 508.5 371.253906 612.558594 262.355469 C 672.574219 339.773438 736.046875 410.90625 806.058594 479.546875 C 811.203125 484.59375 818.382812 476.003906 813.261719 470.992188 " fill-opacity="1" fill-rule="nonzero"/></g><g clip-path="url(#id2)"><path fill="#2b7929" d="M 905.691406 564.148438 C 898.054688 556.222656 890.417969 548.300781 882.777344 540.371094 C 877.984375 535.394531 870.964844 543.703125 875.832031 548.625 C 883.5625 556.4375 891.292969 564.25 899.023438 572.066406 C 903.734375 576.824219 910.253906 568.886719 905.691406 564.148438 " fill-opacity="1" fill-rule="nonzero"/></g><path fill="#2b7929" d="M 831.320312 354.308594 C 815.398438 353.492188 800.457031 362.085938 790.386719 374.25 C 781.574219 367.261719 770.859375 363.382812 759.027344 362.980469 C 744.585938 362.496094 743.726562 385.128906 758.191406 385.421875 C 769.441406 385.644531 777.308594 390.117188 784.039062 399.050781 C 787.980469 404.28125 798.433594 403.503906 801.316406 397.476562 C 808.195312 383.101562 818.59375 377.992188 833.246094 374.011719 C 844.019531 371.082031 842.785156 354.898438 831.320312 354.308594 " fill-opacity="1" fill-rule="nonzero"/><path fill="#2b7929" d="M 774.550781 307.238281 C 763.65625 308.210938 754.777344 312.890625 747.976562 320.789062 C 740.191406 315.019531 731.199219 312.421875 721.070312 313.089844 C 713.035156 313.617188 714.394531 325.238281 722.566406 324.113281 C 731.078125 322.945312 738.957031 326.511719 744.902344 332.410156 C 747.507812 334.992188 751.675781 334.28125 753.582031 331.292969 C 758.4375 323.679688 765.472656 319.191406 774.550781 318.265625 C 781.515625 317.554688 781.65625 306.609375 774.550781 307.238281 " fill-opacity="1" fill-rule="nonzero"/><path fill="#2b7929" d="M 351.148438 512.804688 C 324.453125 534.441406 296.988281 554.515625 267.570312 571.621094 C 261.34375 575.238281 266.796875 585.144531 273.050781 581.417969 C 302.859375 563.675781 333.890625 541.390625 357.796875 519.714844 C 362.417969 515.519531 355.910156 508.945312 351.148438 512.804688 " fill-opacity="1" fill-rule="nonzero"/><g clip-path="url(#id3)"><path fill="#2b7929" d="M 905.5625 593.226562 C 886.277344 571.761719 864.289062 552.71875 845.222656 531.0625 C 840.449219 525.640625 831.90625 534.117188 837.285156 539.003906 C 858.644531 558.398438 877.34375 580.679688 898.5 600.289062 C 903.234375 604.675781 909.855469 598.003906 905.5625 593.226562 " fill-opacity="1" fill-rule="nonzero"/></g><path fill="#2b7929" d="M 779.015625 476.027344 C 721.316406 415.410156 666.957031 351.792969 616.546875 284.984375 C 614.695312 282.535156 610.734375 281.09375 608.324219 283.925781 C 555.566406 345.890625 497.242188 401.234375 432.425781 450.492188 C 426.023438 455.351562 432.765625 464.308594 439.226562 459.304688 C 501.953125 410.730469 559.808594 355.738281 611.738281 295.75 C 661.308594 361.472656 714.394531 424.210938 771.554688 483.480469 C 776.28125 488.378906 783.695312 480.9375 779.015625 476.027344 " fill-opacity="1" fill-rule="nonzero"/><path fill="#2b7929" d="M 781.023438 669.316406 C 780.796875 662.554688 770.402344 662.503906 770.476562 669.316406 C 770.820312 699.804688 771.554688 730.371094 772.675781 760.839844 C 772.914062 767.417969 782.992188 767.476562 782.9375 760.839844 C 782.6875 730.351562 782.046875 699.789062 781.023438 669.316406 " fill-opacity="1" fill-rule="nonzero"/><path fill="#2b7929" d="M 793.695312 681.988281 C 788.242188 689.761719 782.34375 697.160156 776.199219 704.375 C 771.761719 698.230469 767.328125 692.089844 762.894531 685.953125 C 758.679688 680.117188 748.898438 685.847656 753.203125 691.617188 C 759.214844 699.671875 765.226562 707.734375 771.238281 715.792969 C 773.175781 718.382812 777.148438 719.703125 779.683594 716.878906 C 788.066406 707.519531 795.882812 697.746094 803.25 687.574219 C 807.414062 681.824219 797.777344 676.171875 793.695312 681.988281 " fill-opacity="1" fill-rule="nonzero"/><path fill="#2b7929" d="M 823.207031 706.914062 C 807.828125 718.117188 792.914062 729.996094 777.910156 741.71875 C 765.140625 733.132812 752.441406 723.871094 740.988281 713.695312 C 734.972656 708.351562 727.496094 717.761719 734.183594 722.511719 C 748.078125 732.382812 761.664062 742.800781 775.371094 752.941406 C 777.429688 754.464844 780.101562 753.46875 781.84375 752.105469 C 797.6875 739.738281 813.769531 727.558594 829.210938 714.691406 C 833.480469 711.128906 827.769531 703.59375 823.207031 706.914062 " fill-opacity="1" fill-rule="nonzero"/><path fill="#2b7929" d="M 778.082031 810.804688 C 754.605469 809.300781 744.152344 790.199219 747.367188 769.011719 C 767.941406 768.886719 788.414062 768.527344 808.9375 766.960938 C 811.308594 788.558594 804.785156 812.515625 778.082031 810.804688 Z M 818.925781 759.691406 C 818.582031 757.503906 815.820312 755.46875 813.632812 755.660156 C 789.757812 757.726562 765.667969 759.007812 741.710938 757.828125 C 736.957031 757.59375 737.046875 762.226562 736.914062 765.953125 C 735.671875 801.339844 747.171875 820.707031 780.164062 821.464844 C 815.308594 822.269531 823.40625 788.136719 818.925781 759.691406 " fill-opacity="1" fill-rule="nonzero"/><path fill="#2b7929" d="M 858.890625 660.902344 C 846.761719 666.535156 834.046875 658.8125 833.003906 645.46875 C 832.367188 637.34375 834.664062 630.804688 839.175781 626.535156 C 846.429688 619.667969 859.609375 617.628906 867.5625 628.726562 C 875.363281 639.625 870.824219 655.355469 858.890625 660.902344 Z M 878.550781 625.113281 C 871.679688 612.613281 859.882812 607.519531 846.429688 610.515625 C 824.328125 615.433594 819.257812 636.507812 822.90625 651.78125 C 827.238281 669.933594 847.09375 678.949219 863.886719 670.894531 C 880.695312 662.828125 887.574219 641.542969 878.550781 625.113281 " fill-opacity="1" fill-rule="nonzero"/><path fill="#2b7929" d="M 854.839844 632.535156 C 850.996094 631.070312 846.617188 633.109375 845.136719 636.683594 C 842.914062 639.355469 842.566406 643.292969 845.023438 646.253906 C 848.582031 650.53125 855.320312 649.476562 858.355469 645.179688 C 861.363281 640.921875 859.785156 634.429688 854.839844 632.535156 " fill-opacity="1" fill-rule="nonzero"/><path fill="#2b7929" d="M 857.660156 670.300781 C 857.898438 663.070312 846.128906 663.074219 846.4375 670.300781 C 847.386719 692.496094 848.175781 715.253906 846.921875 737.433594 C 846.527344 744.460938 858.292969 744.445312 857.832031 737.433594 C 856.363281 715.269531 856.929688 692.507812 857.660156 670.300781 " fill-opacity="1" fill-rule="nonzero"/><path fill="#2b7929" d="M 868.570312 795.707031 C 865.914062 800.648438 859.496094 805.828125 852.136719 804.683594 C 845.332031 803.628906 840.582031 797.996094 839.0625 786.539062 C 838.4375 781.84375 838.496094 776.851562 838.289062 772.136719 C 837.878906 762.945312 837.65625 753.753906 837.429688 744.5625 C 849.300781 744.367188 861.183594 744.363281 873.058594 744.3125 C 874.34375 760.898438 876.140625 781.621094 868.570312 795.707031 Z M 883.753906 738.765625 C 883.585938 735.785156 881.359375 733.222656 878.21875 733.230469 C 862.566406 733.277344 846.902344 733.628906 831.25 733.402344 C 826.636719 733.335938 825.9375 739.125 825.910156 742.699219 C 825.722656 765.039062 819.914062 821.371094 857.089844 817.25 C 892.683594 813.308594 885.101562 762.261719 883.753906 738.765625 " fill-opacity="1" fill-rule="nonzero"/><path fill="#2b7929" d="M 332.925781 725.421875 C 314.617188 731.757812 273.101562 727.546875 256.84375 724.8125 C 245.488281 722.902344 236.226562 721.261719 235.902344 712.816406 C 235.523438 702.832031 245.898438 701.648438 247.140625 693.558594 C 248.140625 687.050781 236.089844 682.121094 241.3125 672.996094 C 246.089844 664.648438 257.796875 670.136719 258.300781 670.625 C 262.480469 674.664062 269.105469 675.042969 269.140625 668.453125 C 269.238281 649.933594 269.15625 619.800781 290.039062 622.433594 C 307.582031 624.640625 309.128906 663.722656 310.175781 674.589844 C 310.5 677.957031 313.507812 679.742188 316.664062 678.953125 C 337.6875 671.695312 347.910156 681.6875 351.628906 697.75 C 354.785156 711.363281 347.820312 720.273438 332.925781 725.421875 Z M 319.777344 667.917969 C 318.898438 646.382812 314.957031 610.730469 288.699219 610.847656 C 262.339844 610.960938 258.199219 636.832031 257.859375 657.988281 C 250.414062 654.597656 242.035156 654.949219 235.230469 661.578125 C 225.589844 670.980469 228.070312 683.714844 234.15625 693.96875 C 222.199219 700.332031 217.898438 716.539062 230.121094 728.320312 C 238.515625 736.414062 255.992188 737.230469 266.828125 738.144531 C 290.355469 740.125 310.539062 740.476562 328.15625 738.761719 C 387.089844 733.03125 367.957031 656.320312 319.777344 667.917969 " fill-opacity="1" fill-rule="nonzero"/><path fill="#2b7929" d="M 294.863281 734.386719 C 295.539062 727.902344 282.449219 728.246094 283.839844 735.671875 C 284.953125 741.613281 284.277344 747.632812 284.386719 753.601562 C 284.492188 759.117188 284.742188 764.550781 284.636719 770.066406 C 284.523438 776.191406 295.945312 776.183594 295.703125 770.066406 C 295.242188 758.398438 293.65625 746.003906 294.863281 734.386719 " fill-opacity="1" fill-rule="nonzero"/><path fill="#2b7929" d="M 312.941406 803.054688 C 306.378906 808.101562 295.417969 810.449219 287.300781 810.433594 C 277.664062 810.417969 268.589844 805.675781 263.308594 797.507812 C 259.65625 791.855469 258.164062 785.910156 257.292969 779.800781 C 278.714844 779.972656 301.4375 777.628906 323.039062 778.617188 C 322.6875 787.863281 320.648438 797.132812 312.941406 803.054688 Z M 328.652344 767.8125 C 314.886719 766.949219 301.144531 766.46875 287.355469 766.992188 C 275.515625 767.441406 264.570312 766.773438 251.585938 768.621094 C 244.519531 769.628906 245.574219 778.371094 246.34375 783.554688 C 247.671875 792.472656 251.238281 802.191406 259.820312 810.609375 C 268.636719 819.257812 280.074219 822.378906 292.164062 821.257812 C 320.550781 818.636719 334.699219 801.515625 334.054688 773.355469 C 333.984375 770.289062 331.699219 768.003906 328.652344 767.8125 " fill-opacity="1" fill-rule="nonzero"/><path fill="#2b7929" d="M 401.394531 771.839844 C 391.582031 780.363281 376.574219 774.644531 373.652344 762.558594 C 369.714844 746.296875 381.917969 729.792969 398.601562 736.71875 C 411.867188 742.230469 411.289062 763.246094 401.394531 771.839844 Z M 406.375 728.433594 C 391.648438 719.175781 376.652344 726.367188 367.605469 738.085938 C 361.453125 746.046875 359.921875 757.21875 363.773438 767.9375 C 370.207031 785.839844 393.214844 793.179688 408.1875 780.640625 C 423.515625 767.804688 423.964844 739.488281 406.375 728.433594 " fill-opacity="1" fill-rule="nonzero"/><path fill="#2b7929" d="M 384.890625 785.707031 C 384.613281 795.347656 384.957031 805.257812 383.871094 814.839844 C 383.089844 821.722656 395.058594 822.035156 394.816406 814.839844 C 394.496094 805.199219 395.625 795.34375 396.117188 785.707031 C 396.484375 778.507812 385.097656 778.46875 384.890625 785.707031 " fill-opacity="1" fill-rule="nonzero"/><path fill="#2b7929" d="M 418.617188 784.300781 C 410.011719 788.113281 402.164062 793.671875 393.523438 797.339844 C 388.226562 799.589844 386.613281 798.632812 381.445312 795.984375 C 377.394531 793.910156 373.382812 791.761719 369.46875 789.429688 C 363.121094 785.660156 357.328125 796.257812 363.804688 799.128906 C 371.726562 802.636719 381.703125 811.082031 390.691406 810.269531 C 395.113281 809.871094 399.167969 806.929688 402.976562 804.90625 C 410.003906 801.175781 417.210938 797.644531 423.941406 793.40625 C 429.804688 789.710938 424.710938 781.601562 418.617188 784.300781 " fill-opacity="1" fill-rule="nonzero"/><g clip-path="url(#id4)"><path fill="#2b7929" d="M 723.839844 809.957031 C 702.265625 802.835938 685.035156 809.039062 663.652344 813.789062 C 634.277344 820.308594 609.609375 806.867188 580.84375 807.40625 C 571.445312 807.585938 563.507812 810.542969 554.609375 813.285156 C 536.242188 818.949219 521.667969 816.980469 503.414062 812.289062 C 484.148438 807.335938 468.542969 804.957031 449.625 812.3125 C 442.050781 815.261719 446.777344 826.429688 453.949219 822.578125 C 477.84375 809.738281 501.472656 826.390625 525.296875 828.425781 C 547.011719 830.277344 563.710938 817.617188 585.128906 818.351562 C 605.800781 819.066406 625.011719 828.578125 645.925781 827.855469 C 672.09375 826.953125 694.09375 811.835938 720.875 820.707031 C 727.703125 822.964844 730.632812 812.199219 723.839844 809.957031 " fill-opacity="1" fill-rule="nonzero"/></g><path fill="#2b7929" d="M 388.554688 748.082031 C 384.527344 749.820312 382.707031 754.734375 383.960938 758.722656 C 384.550781 761.457031 386.40625 763.8125 389.636719 764.621094 C 395.3125 766.039062 400.597656 761.199219 400.285156 755.53125 C 399.96875 749.746094 394.019531 745.726562 388.554688 748.082031 " fill-opacity="1" fill-rule="nonzero"/><g fill="#6b9080" fill-opacity="0.4"><g transform="translate(372.790307, 647.429012)"><g><path d="M 29.503906 -16.839844 C 29.503906 -5.972656 37.980469 2.269531 51.597656 2.269531 C 65.453125 2.269531 74.171875 -5.972656 74.171875 -16.839844 L 74.171875 -72.382812 C 74.171875 -73.933594 73.335938 -74.890625 71.546875 -74.890625 L 54.105469 -74.890625 C 52.316406 -74.890625 51.359375 -73.816406 51.359375 -71.902344 L 51.359375 -68.199219 C 51.359375 -63.183594 52.792969 -60.558594 57.210938 -60.558594 L 58.765625 -60.558594 L 58.765625 -17.320312 C 58.765625 -14.570312 56.972656 -11.347656 51.835938 -11.347656 C 47.058594 -11.347656 44.910156 -14.214844 44.910156 -17.320312 L 44.910156 -143.210938 C 44.910156 -146.316406 47.179688 -149.300781 51.835938 -149.300781 C 56.496094 -149.300781 58.765625 -146.316406 58.765625 -143.210938 L 58.765625 -95.074219 C 58.765625 -91.851562 62.230469 -90.535156 64.5 -90.535156 L 71.425781 -90.535156 C 73.335938 -90.535156 74.171875 -91.371094 74.171875 -92.925781 L 74.171875 -143.808594 C 74.171875 -154.4375 65.574219 -162.796875 52.078125 -162.917969 C 38.222656 -162.917969 29.503906 -154.558594 29.503906 -143.808594 Z M 29.503906 -16.839844 "/></g></g></g><g fill="#6b9080" fill-opacity="0.4"><g transform="translate(469.465889, 647.429012)"><g><path d="M 38.9375 0 C 42.164062 0 45.03125 -2.507812 45.03125 -5.851562 L 45.03125 -55.777344 L 51.835938 -55.777344 C 56.613281 -55.777344 58.765625 -52.914062 58.765625 -49.808594 L 58.765625 -5.851562 C 58.765625 -2.507812 61.632812 0 64.738281 0 L 71.304688 0 C 73.574219 0 74.171875 -0.714844 74.171875 -2.867188 L 74.171875 -49.808594 C 74.171875 -55.777344 71.785156 -59.601562 66.648438 -61.988281 C 71.785156 -65.09375 74.171875 -70.351562 74.171875 -77.398438 L 74.171875 -116.214844 C 74.171875 -126.011719 67.246094 -135.445312 52.078125 -135.445312 L 32.367188 -135.445312 C 30.097656 -135.445312 29.621094 -134.730469 29.621094 -132.578125 L 29.621094 -2.867188 C 29.621094 -0.714844 30.097656 0 32.367188 0 Z M 51.835938 -122.1875 C 56.613281 -122.1875 58.765625 -119.203125 58.765625 -116.097656 L 58.765625 -77.636719 C 58.765625 -73.574219 57.332031 -69.039062 52.433594 -69.039062 L 45.03125 -69.039062 L 45.03125 -122.1875 Z M 51.835938 -122.1875 "/></g></g></g><g fill="#6b9080" fill-opacity="0.4"><g transform="translate(566.260879, 647.429012)"><g><path d="M 45.03125 -60.078125 L 53.628906 -60.078125 C 58.765625 -60.078125 63.066406 -61.632812 63.066406 -67.84375 L 63.066406 -70.230469 C 63.066406 -72.261719 62.109375 -73.335938 60.316406 -73.335938 L 45.03125 -73.335938 L 45.03125 -122.070312 L 58.289062 -122.070312 C 62.707031 -122.070312 65.335938 -124.695312 65.335938 -129.953125 L 65.335938 -132.222656 C 65.335938 -134.253906 64.378906 -135.328125 62.585938 -135.328125 L 34.160156 -135.328125 C 30.457031 -135.328125 29.621094 -135.207031 29.621094 -132.460938 L 29.621094 -2.867188 C 29.621094 -0.597656 30.097656 0 32.964844 0 L 62.585938 0 C 64.378906 0 65.335938 -1.074219 65.335938 -3.105469 L 65.335938 -5.375 C 65.335938 -10.628906 62.828125 -13.257812 58.289062 -13.257812 L 45.03125 -13.257812 Z M 45.03125 -60.078125 "/></g></g></g><g fill="#6b9080" fill-opacity="0.4"><g transform="translate(650.872879, 647.429012)"><g><path d="M 45.03125 -60.078125 L 53.628906 -60.078125 C 58.765625 -60.078125 63.066406 -61.632812 63.066406 -67.84375 L 63.066406 -70.230469 C 63.066406 -72.261719 62.109375 -73.335938 60.316406 -73.335938 L 45.03125 -73.335938 L 45.03125 -122.070312 L 58.289062 -122.070312 C 62.707031 -122.070312 65.335938 -124.695312 65.335938 -129.953125 L 65.335938 -132.222656 C 65.335938 -134.253906 64.378906 -135.328125 62.585938 -135.328125 L 34.160156 -135.328125 C 30.457031 -135.328125 29.621094 -135.207031 29.621094 -132.460938 L 29.621094 -2.867188 C 29.621094 -0.597656 30.097656 0 32.964844 0 L 62.585938 0 C 64.378906 0 65.335938 -1.074219 65.335938 -3.105469 L 65.335938 -5.375 C 65.335938 -10.628906 62.828125 -13.257812 58.289062 -13.257812 L 45.03125 -13.257812 Z M 45.03125 -60.078125 "/></g></g></g><g fill="#6b9080" fill-opacity="0.4"><g transform="translate(735.484856, 647.429012)"><g><path d="M 32.367188 -135.328125 C 29.980469 -135.328125 29.621094 -134.609375 29.621094 -132.578125 L 29.621094 -2.867188 C 29.621094 -0.835938 30.339844 0 32.488281 0 L 38.820312 0 C 42.164062 0 45.03125 -2.269531 45.03125 -5.734375 L 45.03125 -6.089844 L 42.28125 -87.3125 L 57.691406 -9.078125 C 58.644531 -4.539062 60.199219 0 64.5 0 L 70.828125 0 C 72.980469 0 73.695312 -0.835938 73.695312 -2.867188 L 73.695312 -132.578125 C 73.695312 -134.609375 73.335938 -135.328125 70.949219 -135.328125 L 64.257812 -135.328125 C 61.152344 -135.328125 58.289062 -133.058594 58.289062 -129.714844 L 58.289062 -129.355469 L 61.035156 -48.375 L 45.867188 -125.652344 C 44.671875 -131.742188 42.164062 -135.328125 39.058594 -135.328125 Z M 32.367188 -135.328125 "/></g></g></g><g fill="#6b9080" fill-opacity="1"><g transform="translate(362.655081, 637.293789)"><g><path d="M 29.503906 -16.839844 C 29.503906 -5.972656 37.980469 2.269531 51.597656 2.269531 C 65.453125 2.269531 74.171875 -5.972656 74.171875 -16.839844 L 74.171875 -72.382812 C 74.171875 -73.933594 73.335938 -74.890625 71.546875 -74.890625 L 54.105469 -74.890625 C 52.316406 -74.890625 51.359375 -73.816406 51.359375 -71.902344 L 51.359375 -68.199219 C 51.359375 -63.183594 52.792969 -60.558594 57.210938 -60.558594 L 58.765625 -60.558594 L 58.765625 -17.320312 C 58.765625 -14.570312 56.972656 -11.347656 51.835938 -11.347656 C 47.058594 -11.347656 44.910156 -14.214844 44.910156 -17.320312 L 44.910156 -143.210938 C 44.910156 -146.316406 47.179688 -149.300781 51.835938 -149.300781 C 56.496094 -149.300781 58.765625 -146.316406 58.765625 -143.210938 L 58.765625 -95.074219 C 58.765625 -91.851562 62.230469 -90.535156 64.5 -90.535156 L 71.425781 -90.535156 C 73.335938 -90.535156 74.171875 -91.371094 74.171875 -92.925781 L 74.171875 -143.808594 C 74.171875 -154.4375 65.574219 -162.796875 52.078125 -162.917969 C 38.222656 -162.917969 29.503906 -154.558594 29.503906 -143.808594 Z M 29.503906 -16.839844 "/></g></g></g><g fill="#6b9080" fill-opacity="1"><g transform="translate(459.330663, 637.293789)"><g><path d="M 38.9375 0 C 42.164062 0 45.03125 -2.507812 45.03125 -5.851562 L 45.03125 -55.777344 L 51.835938 -55.777344 C 56.613281 -55.777344 58.765625 -52.914062 58.765625 -49.808594 L 58.765625 -5.851562 C 58.765625 -2.507812 61.632812 0 64.738281 0 L 71.304688 0 C 73.574219 0 74.171875 -0.714844 74.171875 -2.867188 L 74.171875 -49.808594 C 74.171875 -55.777344 71.785156 -59.601562 66.648438 -61.988281 C 71.785156 -65.09375 74.171875 -70.351562 74.171875 -77.398438 L 74.171875 -116.214844 C 74.171875 -126.011719 67.246094 -135.445312 52.078125 -135.445312 L 32.367188 -135.445312 C 30.097656 -135.445312 29.621094 -134.730469 29.621094 -132.578125 L 29.621094 -2.867188 C 29.621094 -0.714844 30.097656 0 32.367188 0 Z M 51.835938 -122.1875 C 56.613281 -122.1875 58.765625 -119.203125 58.765625 -116.097656 L 58.765625 -77.636719 C 58.765625 -73.574219 57.332031 -69.039062 52.433594 -69.039062 L 45.03125 -69.039062 L 45.03125 -122.1875 Z M 51.835938 -122.1875 "/></g></g></g><g fill="#6b9080" fill-opacity="1"><g transform="translate(556.125653, 637.293789)"><g><path d="M 45.03125 -60.078125 L 53.628906 -60.078125 C 58.765625 -60.078125 63.066406 -61.632812 63.066406 -67.84375 L 63.066406 -70.230469 C 63.066406 -72.261719 62.109375 -73.335938 60.316406 -73.335938 L 45.03125 -73.335938 L 45.03125 -122.070312 L 58.289062 -122.070312 C 62.707031 -122.070312 65.335938 -124.695312 65.335938 -129.953125 L 65.335938 -132.222656 C 65.335938 -134.253906 64.378906 -135.328125 62.585938 -135.328125 L 34.160156 -135.328125 C 30.457031 -135.328125 29.621094 -135.207031 29.621094 -132.460938 L 29.621094 -2.867188 C 29.621094 -0.597656 30.097656 0 32.964844 0 L 62.585938 0 C 64.378906 0 65.335938 -1.074219 65.335938 -3.105469 L 65.335938 -5.375 C 65.335938 -10.628906 62.828125 -13.257812 58.289062 -13.257812 L 45.03125 -13.257812 Z M 45.03125 -60.078125 "/></g></g></g><g fill="#6b9080" fill-opacity="1"><g transform="translate(640.737653, 637.293789)"><g><path d="M 45.03125 -60.078125 L 53.628906 -60.078125 C 58.765625 -60.078125 63.066406 -61.632812 63.066406 -67.84375 L 63.066406 -70.230469 C 63.066406 -72.261719 62.109375 -73.335938 60.316406 -73.335938 L 45.03125 -73.335938 L 45.03125 -122.070312 L 58.289062 -122.070312 C 62.707031 -122.070312 65.335938 -124.695312 65.335938 -129.953125 L 65.335938 -132.222656 C 65.335938 -134.253906 64.378906 -135.328125 62.585938 -135.328125 L 34.160156 -135.328125 C 30.457031 -135.328125 29.621094 -135.207031 29.621094 -132.460938 L 29.621094 -2.867188 C 29.621094 -0.597656 30.097656 0 32.964844 0 L 62.585938 0 C 64.378906 0 65.335938 -1.074219 65.335938 -3.105469 L 65.335938 -5.375 C 65.335938 -10.628906 62.828125 -13.257812 58.289062 -13.257812 L 45.03125 -13.257812 Z M 45.03125 -60.078125 "/></g></g></g><g fill="#6b9080" fill-opacity="1"><g transform="translate(725.34963, 637.293789)"><g><path d="M 32.367188 -135.328125 C 29.980469 -135.328125 29.621094 -134.609375 29.621094 -132.578125 L 29.621094 -2.867188 C 29.621094 -0.835938 30.339844 0 32.488281 0 L 38.820312 0 C 42.164062 0 45.03125 -2.269531 45.03125 -5.734375 L 45.03125 -6.089844 L 42.28125 -87.3125 L 57.691406 -9.078125 C 58.644531 -4.539062 60.199219 0 64.5 0 L 70.828125 0 C 72.980469 0 73.695312 -0.835938 73.695312 -2.867188 L 73.695312 -132.578125 C 73.695312 -134.609375 73.335938 -135.328125 70.949219 -135.328125 L 64.257812 -135.328125 C 61.152344 -135.328125 58.289062 -133.058594 58.289062 -129.714844 L 58.289062 -129.355469 L 61.035156 -48.375 L 45.867188 -125.652344 C 44.671875 -131.742188 42.164062 -135.328125 39.058594 -135.328125 Z M 32.367188 -135.328125 "/></g></g></g><g fill="#998763" fill-opacity="1"><g transform="translate(443.63547, 747.916092)"><g><path d="M 16.507812 -77.304688 C 14.550781 -77.304688 14.265625 -76.730469 14.265625 -75.0625 L 14.265625 -2.414062 C 14.265625 -0.632812 14.953125 0 16.679688 0 L 22.488281 0 C 25.078125 0 27.035156 -1.957031 27.035156 -4.542969 L 27.035156 -34.28125 L 32.5 -34.28125 L 32.5 -4.542969 C 32.5 -1.957031 34.453125 0 36.984375 0 L 42.851562 0 C 44.578125 0 45.269531 -0.632812 45.269531 -2.414062 L 45.269531 -75.0625 C 45.269531 -76.730469 44.921875 -77.304688 43.023438 -77.304688 L 36.8125 -77.304688 C 34.570312 -77.304688 32.5 -75.40625 32.5 -72.820312 L 32.5 -44.636719 L 27.035156 -44.636719 L 27.035156 -72.820312 C 27.035156 -75.40625 24.847656 -77.304688 22.664062 -77.304688 Z M 16.507812 -77.304688 "/></g></g></g><g fill="#998763" fill-opacity="1"><g transform="translate(494.001463, 747.916092)"><g><path d="M 14.378906 -11.964844 C 14.378906 -4.890625 20.363281 1.265625 30.140625 1.265625 C 39.6875 1.265625 45.902344 -4.945312 45.902344 -11.964844 L 45.902344 -53.4375 C 45.902344 -60.566406 39.859375 -66.609375 30.082031 -66.609375 C 20.59375 -66.609375 14.378906 -60.511719 14.378906 -53.4375 Z M 27.148438 -52.917969 C 27.148438 -54.242188 28.414062 -55.5625 30.082031 -55.5625 C 31.867188 -55.5625 33.132812 -54.183594 33.132812 -52.917969 L 33.132812 -12.367188 C 33.132812 -11.214844 31.980469 -9.722656 30.253906 -9.722656 C 28.472656 -9.722656 27.148438 -10.929688 27.148438 -12.367188 Z M 27.148438 -52.917969 "/></g></g></g><g fill="#998763" fill-opacity="1"><g transform="translate(545.115202, 747.916092)"><g><path d="M 16.566406 -65.226562 C 14.726562 -65.226562 14.265625 -64.59375 14.265625 -62.867188 L 14.265625 -11.734375 C 14.265625 -4.660156 20.535156 1.378906 30.253906 1.378906 C 39.6875 1.378906 45.726562 -4.714844 45.726562 -11.734375 L 45.726562 -62.867188 C 45.726562 -64.59375 45.269531 -65.226562 43.425781 -65.226562 L 37.332031 -65.226562 C 35.085938 -65.226562 33.015625 -63.269531 33.015625 -60.855469 L 33.015625 -12.308594 C 33.015625 -11.042969 31.75 -9.664062 29.96875 -9.664062 C 28.128906 -9.664062 27.035156 -11.101562 27.035156 -12.308594 L 27.035156 -60.855469 C 27.035156 -63.269531 24.847656 -65.226562 22.605469 -65.226562 Z M 16.566406 -65.226562 "/></g></g></g><g fill="#998763" fill-opacity="1"><g transform="translate(595.94135, 747.916092)"><g><path d="M 16.449219 -22.835938 C 14.898438 -22.835938 14.265625 -22.144531 14.265625 -20.765625 L 14.265625 -11.734375 C 14.265625 -4.542969 20.363281 1.378906 29.96875 1.378906 C 39.6875 1.378906 45.726562 -4.542969 45.726562 -11.734375 C 45.726562 -38.882812 27.035156 -34.453125 27.035156 -52.917969 C 27.035156 -53.953125 28.242188 -55.507812 29.96875 -55.507812 C 31.691406 -55.507812 33.015625 -54.125 33.015625 -52.804688 L 33.015625 -44.289062 C 33.015625 -42.335938 35.144531 -41.183594 37.042969 -41.183594 L 43.542969 -41.183594 C 45.09375 -41.183594 45.726562 -41.988281 45.726562 -43.3125 L 45.726562 -53.378906 C 45.726562 -60.625 39.34375 -66.550781 29.738281 -66.550781 C 20.417969 -66.550781 14.265625 -60.625 14.265625 -53.378906 C 14.265625 -28.300781 33.015625 -30.140625 33.015625 -12.308594 C 33.015625 -11.042969 31.75 -9.664062 29.96875 -9.664062 C 28.355469 -9.664062 27.035156 -11.042969 27.035156 -12.308594 L 27.035156 -19.785156 C 27.035156 -21.742188 24.789062 -22.835938 22.949219 -22.835938 Z M 16.449219 -22.835938 "/></g></g></g><g fill="#998763" fill-opacity="1"><g transform="translate(646.825028, 747.916092)"><g><path d="M 27.035156 -26.746094 L 31.234375 -26.746094 C 34.800781 -26.746094 36.925781 -28.933594 36.925781 -33.074219 L 36.925781 -35.03125 C 36.925781 -36.523438 35.949219 -37.386719 34.453125 -37.386719 L 27.035156 -37.386719 L 27.035156 -54.527344 L 33.417969 -54.527344 C 36.925781 -54.527344 38.882812 -56.886719 38.882812 -60.914062 L 38.882812 -62.8125 C 38.882812 -64.308594 37.90625 -65.167969 36.410156 -65.167969 L 17.773438 -65.167969 C 15.011719 -65.167969 14.265625 -65.054688 14.265625 -62.8125 L 14.265625 -2.300781 C 14.265625 -0.574219 14.726562 0 16.625 0 L 36.410156 0 C 37.90625 0 38.882812 -0.863281 38.882812 -2.359375 L 38.882812 -4.257812 C 38.882812 -8.339844 36.984375 -10.640625 33.417969 -10.640625 L 27.035156 -10.640625 Z M 27.035156 -26.746094 "/></g></g></g></svg>